<svg width="505" height="505" viewBox="0 0 505 505" fill="none" xmlns="http://www.w3.org/2000/svg">
<path d="M490 252.5C490 383.668 383.668 490 252.5 490C121.332 490 15 383.668 15 252.5C15 121.332 121.332 15 252.5 15C383.668 15 490 121.332 490 252.5Z" fill="#FFF" stroke="#FF4C4C" stroke-width="30"/>
<path d="M288.375 246.405V363.072M221.625 246.405V363.072M138 86.6247L200.593 109.812M200.593 109.812L325.78 156.187M200.593 109.812L209.531 98.6892C218.189 87.9141 222.519 82.5263 228.009 79.3907C232.857 76.6216 238.324 75.1134 243.909 75.0045C250.235 74.8812 256.723 77.2846 269.702 82.0925L291.409 90.1338C304.388 94.9417 310.875 97.3451 315.594 101.56C319.761 105.281 322.926 109.987 324.8 115.247C326.921 121.202 326.697 128.111 326.246 141.929L325.78 156.187M325.78 156.187L388.373 179.374M201.999 108.738C173.251 107.873 150.858 166.834 189 179.238M355.125 179.738V349.738C355.125 377.742 355.125 391.742 349.668 402.438C344.869 411.847 337.211 419.495 327.791 424.288C317.081 429.738 303.063 429.738 275.025 429.738H234.975C206.937 429.738 192.919 429.738 182.21 424.288C172.79 419.495 165.131 411.847 160.332 402.438C154.875 391.742 154.875 377.742 154.875 349.738V179.738H355.125Z" stroke="#FF4C4C" stroke-width="30" stroke-linecap="round"/>
</svg>
