<svg width="535" height="535" viewBox="0 0 535 535" fill="none" xmlns="http://www.w3.org/2000/svg">
<path d="M267.5 15C406.952 15 520 128.048 520 267.5C520 406.952 406.952 520 267.5 520C128.048 520 15 406.952 15 267.5C15 128.048 128.048 15 267.5 15Z" fill="#FFF" stroke="#3FE045" stroke-width="30"/>
<path d="M135 196H401.667M335 196L330.49 182.468C326.118 169.354 323.932 162.797 319.878 157.95C316.298 153.669 311.702 150.355 306.508 148.313C300.627 146 293.717 146 279.893 146H256.773C242.95 146 236.04 146 230.158 148.313C224.965 150.355 220.368 153.669 216.788 157.95C212.734 162.797 210.549 169.354 206.177 182.468L201.667 196M368.333 196V366C368.333 394.003 368.333 408.003 362.883 418.7C358.09 428.108 350.442 435.757 341.033 440.55C330.337 446 316.337 446 288.333 446H248.333C220.331 446 206.329 446 195.634 440.55C186.226 435.757 178.577 428.108 173.783 418.7C168.333 408.003 168.333 394.003 168.333 366V196M301.667 262.667V379.333M235 262.667V379.333" stroke="#3FE045" stroke-width="30" stroke-linecap="round" stroke-linejoin="round"/>
</svg>
